<svg width="21" height="21" viewBox="0 0 21 21" fill="none" xmlns="http://www.w3.org/2000/svg">
<g clip-path="url(#clip0_739_15680)">
<path fill-rule="evenodd" clip-rule="evenodd" d="M11.4542 14.4543C11.2901 14.6183 11.0676 14.7104 10.8355 14.7104C10.6035 14.7104 10.381 14.6183 10.2169 14.4543L5.26704 9.50438C5.18346 9.42366 5.1168 9.32711 5.07095 9.22036C5.02509 9.1136 5.00095 8.99879 4.99994 8.8826C4.99893 8.76642 5.02107 8.6512 5.06507 8.54367C5.10906 8.43613 5.17403 8.33844 5.25619 8.25628C5.33835 8.17413 5.43604 8.10915 5.54358 8.06516C5.65111 8.02116 5.76633 7.99902 5.88251 8.00003C5.99869 8.00104 6.11351 8.02518 6.22026 8.07104C6.32702 8.1169 6.42357 8.18356 6.50428 8.26713L10.8355 12.5984L15.1668 8.26713C15.3318 8.10774 15.5528 8.01954 15.7823 8.02154C16.0117 8.02353 16.2311 8.11555 16.3934 8.27779C16.5556 8.44002 16.6476 8.65948 16.6496 8.8889C16.6516 9.11832 16.5634 9.33935 16.404 9.50438L11.4542 14.4543Z" fill="#0D3C61"/>
</g>
<defs>
<clipPath id="clip0_739_15680">
<rect width="21" height="21" fill="white" transform="matrix(0 1 -1 0 21 0)"/>
</clipPath>
</defs>
</svg>
