<svg width="20" height="20" viewBox="0 0 20 20" fill="none" xmlns="http://www.w3.org/2000/svg">
<path fill-rule="evenodd" clip-rule="evenodd" d="M6.55354 2.18503L13.7965 9.44102C13.8617 9.50333 13.9135 9.57833 13.9486 9.6614C13.9836 9.74447 14.0013 9.83385 14.0005 9.92403C14.0009 10.0162 13.9831 10.1076 13.9481 10.1929C13.9131 10.2782 13.8616 10.3557 13.7965 10.421C11.1765 12.977 8.65154 15.444 6.22154 17.822C6.09654 17.939 5.59654 18.23 5.21054 17.798C4.82454 17.365 5.05854 16.988 5.21054 16.832L12.2785 9.92403L5.53154 3.16503C5.28554 2.82569 5.30554 2.51269 5.59154 2.22602C5.87821 1.93936 6.19887 1.92503 6.55354 2.18503Z" fill="#59B0F6" stroke="#59B0F6"/>
</svg>
