<svg width="20" height="20" viewBox="0 0 20 20" fill="none" xmlns="http://www.w3.org/2000/svg">
<path fill-rule="evenodd" clip-rule="evenodd" d="M13.4465 2.18503L6.20346 9.44102C6.13826 9.50333 6.08653 9.57833 6.05144 9.6614C6.01635 9.74447 5.99866 9.83385 5.99946 9.92403C5.99906 10.0162 6.01687 10.1076 6.05188 10.1929C6.08689 10.2782 6.1384 10.3557 6.20346 10.421C8.82346 12.977 11.3485 15.444 13.7785 17.822C13.9035 17.939 14.4035 18.23 14.7895 17.798C15.1755 17.365 14.9415 16.988 14.7895 16.832L7.72146 9.92403L14.4685 3.16503C14.7145 2.82569 14.6945 2.51269 14.4085 2.22602C14.1218 1.93936 13.8011 1.92503 13.4465 2.18503Z" fill="#59B0F6" stroke="#59B0F6"/>
</svg>
