<svg width="56" height="43" viewBox="0 0 56 43" fill="none" xmlns="http://www.w3.org/2000/svg">
<path fill-rule="evenodd" clip-rule="evenodd" d="M12.3829 27.3892C12.5154 27.6348 12.7397 27.8447 13.0276 27.9924C13.3154 28.14 13.6538 28.2188 13.9999 28.2188H41.9999C42.3458 28.2186 42.6839 28.1396 42.9714 27.992C43.2589 27.8443 43.4829 27.6345 43.6153 27.3891C43.7476 27.1437 43.7823 26.8737 43.7149 26.6132C43.6475 26.3527 43.481 26.1134 43.2366 25.9255L29.2366 15.1755C28.9085 14.9238 28.4637 14.7825 27.9999 14.7825C27.5362 14.7825 27.0914 14.9238 26.7633 15.1755L12.7633 25.9255C12.5185 26.1132 12.3518 26.3525 12.2841 26.6131C12.2164 26.8736 12.2508 27.1437 12.3829 27.3892Z" fill="black" fill-opacity="0.43"/>
</svg>
