<svg width="56" height="43" viewBox="0 0 56 43" fill="none" xmlns="http://www.w3.org/2000/svg">
<path fill-rule="evenodd" clip-rule="evenodd" d="M12.3829 15.6108C12.5154 15.3652 12.7397 15.1553 13.0276 15.0076C13.3154 14.86 13.6538 14.7812 13.9999 14.7812H41.9999C42.3458 14.7814 42.6839 14.8604 42.9714 15.008C43.2589 15.1557 43.4829 15.3655 43.6153 15.6109C43.7476 15.8563 43.7823 16.1263 43.7149 16.3868C43.6475 16.6473 43.481 16.8866 43.2366 17.0745L29.2366 27.8245C28.9085 28.0762 28.4637 28.2175 27.9999 28.2175C27.5362 28.2175 27.0914 28.0762 26.7633 27.8245L12.7633 17.0745C12.5185 16.8868 12.3518 16.6475 12.2841 16.3869C12.2164 16.1264 12.2508 15.8563 12.3829 15.6108Z" fill="black" fill-opacity="0.43"/>
</svg>
