<svg width="21" height="21" viewBox="0 0 21 21" fill="none" xmlns="http://www.w3.org/2000/svg">
<path d="M8.75 5.55704C8.55109 5.55704 8.36032 5.63896 8.21967 5.78478C8.07902 5.9306 8 6.12838 8 6.3346C8 6.54083 8.07902 6.7386 8.21967 6.88443C8.36032 7.03025 8.55109 7.11217 8.75 7.11217C8.94891 7.11217 9.13968 7.03025 9.28033 6.88443C9.42098 6.7386 9.5 6.54083 9.5 6.3346C9.5 6.12838 9.42098 5.9306 9.28033 5.78478C9.13968 5.63896 8.94891 5.55704 8.75 5.55704ZM6.6275 5.55704C6.78245 5.10175 7.0698 4.70749 7.44995 4.42863C7.8301 4.14976 8.28432 4 8.75 4C9.21568 4 9.6699 4.14976 10.0501 4.42863C10.4302 4.70749 10.7175 5.10175 10.8725 5.55704H16.25C16.4489 5.55704 16.6397 5.63896 16.7803 5.78478C16.921 5.9306 17 6.12838 17 6.3346C17 6.54083 16.921 6.7386 16.7803 6.88443C16.6397 7.03025 16.4489 7.11217 16.25 7.11217H10.8725C10.7175 7.56746 10.4302 7.96171 10.0501 8.24058C9.6699 8.51945 9.21568 8.66921 8.75 8.66921C8.28432 8.66921 7.8301 8.51945 7.44995 8.24058C7.0698 7.96171 6.78245 7.56746 6.6275 7.11217H5.75C5.55109 7.11217 5.36032 7.03025 5.21967 6.88443C5.07902 6.7386 5 6.54083 5 6.3346C5 6.12838 5.07902 5.9306 5.21967 5.78478C5.36032 5.63896 5.55109 5.55704 5.75 5.55704H6.6275ZM13.25 10.2224C13.0511 10.2224 12.8603 10.3044 12.7197 10.4502C12.579 10.596 12.5 10.7938 12.5 11C12.5 11.2062 12.579 11.404 12.7197 11.5498C12.8603 11.6956 13.0511 11.7776 13.25 11.7776C13.4489 11.7776 13.6397 11.6956 13.7803 11.5498C13.921 11.404 14 11.2062 14 11C14 10.7938 13.921 10.596 13.7803 10.4502C13.6397 10.3044 13.4489 10.2224 13.25 10.2224ZM11.1275 10.2224C11.2825 9.76714 11.5698 9.37289 11.9499 9.09402C12.3301 8.81515 12.7843 8.6654 13.25 8.6654C13.7157 8.6654 14.1699 8.81515 14.5501 9.09402C14.9302 9.37289 15.2175 9.76714 15.3725 10.2224H16.25C16.4489 10.2224 16.6397 10.3044 16.7803 10.4502C16.921 10.596 17 10.7938 17 11C17 11.2062 16.921 11.404 16.7803 11.5498C16.6397 11.6956 16.4489 11.7776 16.25 11.7776H15.3725C15.2175 12.2329 14.9302 12.6271 14.5501 12.906C14.1699 13.1848 13.7157 13.3346 13.25 13.3346C12.7843 13.3346 12.3301 13.1848 11.9499 12.906C11.5698 12.6271 11.2825 12.2329 11.1275 11.7776H5.75C5.55109 11.7776 5.36032 11.6956 5.21967 11.5498C5.07902 11.404 5 11.2062 5 11C5 10.7938 5.07902 10.596 5.21967 10.4502C5.36032 10.3044 5.55109 10.2224 5.75 10.2224H11.1275ZM8.75 14.8878C8.55109 14.8878 8.36032 14.9698 8.21967 15.1156C8.07902 15.2614 8 15.4592 8 15.6654C8 15.8716 8.07902 16.0694 8.21967 16.2152C8.36032 16.361 8.55109 16.443 8.75 16.443C8.94891 16.443 9.13968 16.361 9.28033 16.2152C9.42098 16.0694 9.5 15.8716 9.5 15.6654C9.5 15.4592 9.42098 15.2614 9.28033 15.1156C9.13968 14.9698 8.94891 14.8878 8.75 14.8878ZM6.6275 14.8878C6.78245 14.4325 7.0698 14.0383 7.44995 13.7594C7.8301 13.4805 8.28432 13.3308 8.75 13.3308C9.21568 13.3308 9.6699 13.4805 10.0501 13.7594C10.4302 14.0383 10.7175 14.4325 10.8725 14.8878H16.25C16.4489 14.8878 16.6397 14.9698 16.7803 15.1156C16.921 15.2614 17 15.4592 17 15.6654C17 15.8716 16.921 16.0694 16.7803 16.2152C16.6397 16.361 16.4489 16.443 16.25 16.443H10.8725C10.7175 16.8983 10.4302 17.2925 10.0501 17.5714C9.6699 17.8502 9.21568 18 8.75 18C8.28432 18 7.8301 17.8502 7.44995 17.5714C7.0698 17.2925 6.78245 16.8983 6.6275 16.443H5.75C5.55109 16.443 5.36032 16.361 5.21967 16.2152C5.07902 16.0694 5 15.8716 5 15.6654C5 15.4592 5.07902 15.2614 5.21967 15.1156C5.36032 14.9698 5.55109 14.8878 5.75 14.8878H6.6275Z" fill="#0D3C61"/>
</svg>
