<svg width="30" height="30" viewBox="0 0 30 30" fill="none" xmlns="http://www.w3.org/2000/svg">
<path d="M21.25 27.5C20.2083 27.5 19.3229 27.1354 18.5938 26.4062C17.8646 25.6771 17.5 24.7917 17.5 23.75C17.5 23.625 17.5312 23.3333 17.5938 22.875L8.8125 17.75C8.47917 18.0625 8.09375 18.3075 7.65625 18.485C7.21875 18.6625 6.75 18.7508 6.25 18.75C5.20833 18.75 4.32292 18.3854 3.59375 17.6562C2.86458 16.9271 2.5 16.0417 2.5 15C2.5 13.9583 2.86458 13.0729 3.59375 12.3438C4.32292 11.6146 5.20833 11.25 6.25 11.25C6.75 11.25 7.21875 11.3388 7.65625 11.5163C8.09375 11.6938 8.47917 11.9383 8.8125 12.25L17.5938 7.125C17.5521 6.97917 17.5262 6.83875 17.5162 6.70375C17.5062 6.56875 17.5008 6.4175 17.5 6.25C17.5 5.20833 17.8646 4.32292 18.5938 3.59375C19.3229 2.86458 20.2083 2.5 21.25 2.5C22.2917 2.5 23.1771 2.86458 23.9062 3.59375C24.6354 4.32292 25 5.20833 25 6.25C25 7.29167 24.6354 8.17708 23.9062 8.90625C23.1771 9.63542 22.2917 10 21.25 10C20.75 10 20.2812 9.91125 19.8438 9.73375C19.4062 9.55625 19.0208 9.31167 18.6875 9L9.90625 14.125C9.94792 14.2708 9.97417 14.4117 9.985 14.5475C9.99583 14.6833 10.0008 14.8342 10 15C9.99917 15.1658 9.99417 15.3171 9.985 15.4537C9.97583 15.5904 9.94958 15.7308 9.90625 15.875L18.6875 21C19.0208 20.6875 19.4062 20.4429 19.8438 20.2662C20.2812 20.0896 20.75 20.0008 21.25 20C22.2917 20 23.1771 20.3646 23.9062 21.0938C24.6354 21.8229 25 22.7083 25 23.75C25 24.7917 24.6354 25.6771 23.9062 26.4062C23.1771 27.1354 22.2917 27.5 21.25 27.5Z" fill="#0D3C61"/>
</svg>
