<svg width="30" height="30" viewBox="0 0 30 30" fill="none" xmlns="http://www.w3.org/2000/svg">
<path fill-rule="evenodd" clip-rule="evenodd" d="M15.7415 29.0725L15.7277 29.075L15.639 29.1187L15.614 29.1237L15.5965 29.1187L15.5077 29.075C15.4944 29.0708 15.4844 29.0729 15.4777 29.0812L15.4727 29.0937L15.4515 29.6287L15.4577 29.6537L15.4702 29.67L15.6002 29.7625L15.619 29.7675L15.634 29.7625L15.764 29.67L15.779 29.65L15.784 29.6287L15.7627 29.095C15.7594 29.0816 15.7523 29.0742 15.7415 29.0725ZM16.0727 28.9312L16.0565 28.9337L15.8252 29.05L15.8127 29.0625L15.809 29.0762L15.8315 29.6137L15.8377 29.6287L15.8477 29.6375L16.099 29.7537C16.1148 29.7579 16.1269 29.7546 16.1352 29.7437L16.1402 29.7262L16.0977 28.9587C16.0935 28.9437 16.0852 28.9346 16.0727 28.9312ZM15.179 28.9337C15.1735 28.9304 15.1669 28.9293 15.1606 28.9307C15.1543 28.9321 15.1488 28.9359 15.1452 28.9412L15.1377 28.9587L15.0952 29.7262C15.096 29.7412 15.1031 29.7512 15.1165 29.7562L15.1352 29.7537L15.3865 29.6375L15.399 29.6275L15.404 29.6137L15.4252 29.0762L15.4215 29.0612L15.409 29.0487L15.179 28.9337Z" fill="#0D3C61"/>
<path fill-rule="evenodd" clip-rule="evenodd" d="M23.1176 4.75123C25.7363 6.27748 27.5788 9.37623 27.4976 12.9912C27.3963 17.5037 23.8851 21.4837 17.8988 25.0387C17.0113 25.5662 16.0763 26.25 15.0001 26.25C13.9438 26.25 12.9688 25.5537 12.1001 25.0375C6.11633 21.4837 2.60383 17.5025 2.50258 12.9912C2.42133 9.37623 4.26383 6.27873 6.88258 4.75123C9.33258 3.32498 12.4101 3.31623 15.0001 5.42248C17.5901 3.31623 20.6676 3.32373 23.1176 4.75123ZM21.8588 6.91248C20.1163 5.89748 17.9388 5.93373 16.0538 7.84123C15.9156 7.97994 15.7514 8.08999 15.5706 8.16509C15.3898 8.24019 15.1959 8.27884 15.0001 8.27884C14.8043 8.27884 14.6104 8.24019 14.4296 8.16509C14.2488 8.08999 14.0845 7.97994 13.9463 7.84123C12.0613 5.93373 9.88383 5.89748 8.14133 6.91248C6.33633 7.96498 4.94133 10.1975 5.00258 12.9375C5.07258 16.0762 7.55258 19.43 13.3776 22.89C13.8876 23.1937 14.4201 23.5825 15.0001 23.7437C15.5801 23.5825 16.1126 23.1937 16.6226 22.89C22.4476 19.43 24.9276 16.0775 24.9976 12.9362C25.0601 10.1987 23.6638 7.96498 21.8588 6.91248Z" fill="#0D3C61"/>
</svg>
