<svg width="94" height="116" viewBox="0 0 94 116" fill="none" xmlns="http://www.w3.org/2000/svg">
<path d="M92.5379 98.7105C92.8532 99.598 92.4591 100.155 91.8285 99.7138L75.1517 88.0366C74.8591 87.8317 74.5887 87.4517 74.4423 87.0398L66.104 63.5695C65.7887 62.6821 65.0004 62.1301 64.6851 62.576L56.3468 74.3692C56.2004 74.5761 55.93 74.5774 55.6373 74.3725L38.9606 62.6953C38.33 62.2537 37.9359 61.1444 38.2512 60.6985L64.6851 23.3133C65.0004 22.8674 65.7887 23.4193 66.104 24.3068L92.5379 98.7105ZM64.6851 59.5708C65.0004 60.4583 65.7887 61.0103 66.104 60.5643L70.1497 54.8417C70.465 54.3958 70.0709 53.2865 69.4403 52.845L61.3488 47.1793C60.7182 46.7378 60.3241 47.2951 60.6394 48.1825L64.6851 59.5708Z" fill="url(#paint0_linear_739_14735)"/>
<path d="M74.6791 103.408C74.7158 104.329 74.1293 104.754 73.6236 104.174L60.2476 88.8262C60.0128 88.5568 59.8578 88.1277 59.8407 87.7003L58.8716 63.3514C58.8349 62.4306 58.2027 61.7052 57.7336 62.0456L45.328 71.0483C45.1103 71.2063 44.8316 71.1377 44.5969 70.8684L31.2189 55.5184C30.7132 54.9381 30.6674 53.7871 31.1365 53.4467L70.4689 24.9032C70.938 24.5628 71.5702 25.2882 71.6069 26.209L74.6791 103.408ZM58.707 59.2043C58.7436 60.1251 59.3758 60.8505 59.845 60.5101L65.8647 56.1412C66.3338 55.8008 66.288 54.6498 65.7822 54.0695L59.2924 46.6229C58.7866 46.0426 58.2002 46.4681 58.2368 47.3889L58.707 59.2043Z" fill="url(#paint1_linear_739_14735)"/>
<path d="M40.3823 33.4194C40.6977 32.9738 41.4853 33.5253 41.8006 34.4125L68.2351 108.816C68.5504 109.703 68.1561 110.26 67.5255 109.819L14.6566 72.7996C14.0263 72.3579 13.6326 71.2491 13.9479 70.8033L40.3823 33.4194ZM32.5162 83.7982C32.2009 84.2441 32.5951 85.3534 33.2256 85.7949L48.9572 96.8103C49.5878 97.2519 49.982 96.6945 49.6666 95.807L41.8005 73.6681C41.4852 72.7807 40.697 72.2288 40.3817 72.6747L32.5162 83.7982ZM40.3824 69.6696C40.6978 70.557 41.486 71.1089 41.8012 70.663L45.847 64.9411C46.1623 64.4952 45.7681 63.3859 45.1376 62.9443L37.0455 57.2782C36.4149 56.8367 36.0208 57.3941 36.3361 58.2815L40.3824 69.6696Z" fill="url(#paint2_linear_739_14735)"/>
<path d="M54.397 113.649C54.7123 114.536 54.3182 115.093 53.6876 114.652L0.820419 77.6338C0.189842 77.1923 -0.204274 76.083 0.111005 75.6371L26.545 38.2509C26.8603 37.805 27.6485 38.3569 27.9638 39.2444L54.397 113.649ZM18.6796 88.6379C18.3643 89.0838 18.7584 90.1931 19.389 90.6347L35.1198 101.65C35.7504 102.091 36.1445 101.534 35.8292 100.646L27.9638 78.5079C27.6485 77.6205 26.8603 77.0686 26.545 77.5145L18.6796 88.6379ZM26.545 74.5086C26.8603 75.396 27.6485 75.948 27.9638 75.502L32.0095 69.7802C32.3248 69.3343 31.9307 68.225 31.3001 67.7835L23.2087 62.1179C22.5781 61.6763 22.184 62.2337 22.4993 63.1211L26.545 74.5086Z" fill="url(#paint3_linear_739_14735)"/>
<defs>
<linearGradient id="paint0_linear_739_14735" x1="65.3945" y1="23.31" x2="29.1258" y2="75.107" gradientUnits="userSpaceOnUse">
<stop stop-color="#9F9F9F"/>
<stop offset="1" stop-color="white"/>
</linearGradient>
<linearGradient id="paint1_linear_739_14735" x1="71.1997" y1="25.0827" x2="20.8035" y2="69.0044" gradientUnits="userSpaceOnUse">
<stop stop-color="#2196F3"/>
<stop offset="1" stop-color="white"/>
</linearGradient>
<linearGradient id="paint2_linear_739_14735" x1="41.0913" y1="33.4158" x2="4.82328" y2="85.2118" gradientUnits="userSpaceOnUse">
<stop stop-color="#9F9F9F"/>
<stop offset="1" stop-color="white"/>
</linearGradient>
<linearGradient id="paint3_linear_739_14735" x1="27.254" y1="38.2473" x2="-9.0153" y2="90.0451" gradientUnits="userSpaceOnUse">
<stop stop-color="#9F9F9F"/>
<stop offset="1" stop-color="white"/>
</linearGradient>
</defs>
</svg>
