<svg width="30" height="30" viewBox="0 0 30 30" fill="none" xmlns="http://www.w3.org/2000/svg">
<path d="M23.6719 5.76091L24.2391 6.3281C24.6797 6.76873 24.6797 7.48123 24.2391 7.91716L22.875 9.28591L20.7141 7.12498L22.0781 5.76091C22.5188 5.32029 23.2313 5.32029 23.6672 5.76091H23.6719ZM12.8344 15.0094L19.125 8.71404L21.2859 10.875L14.9906 17.1656C14.8547 17.3015 14.6859 17.4 14.5031 17.4515L11.7609 18.2344L12.5438 15.4922C12.5953 15.3094 12.6938 15.1406 12.8297 15.0047L12.8344 15.0094ZM20.4891 4.17185L11.2406 13.4156C10.8328 13.8234 10.5375 14.325 10.3828 14.8734L9.04219 19.5609C8.92969 19.9547 9.0375 20.3765 9.32813 20.6672C9.61875 20.9578 10.0406 21.0656 10.4344 20.9531L15.1219 19.6125C15.675 19.4531 16.1766 19.1578 16.5797 18.7547L25.8281 9.51091C27.1453 8.19373 27.1453 6.05623 25.8281 4.73904L25.2609 4.17185C23.9438 2.85466 21.8063 2.85466 20.4891 4.17185ZM7.125 5.99998C4.84688 5.99998 3 7.84685 3 10.125V22.875C3 25.1531 4.84688 27 7.125 27H19.875C22.1531 27 24 25.1531 24 22.875V17.625C24 17.0015 23.4984 16.5 22.875 16.5C22.2516 16.5 21.75 17.0015 21.75 17.625V22.875C21.75 23.9109 20.9109 24.75 19.875 24.75H7.125C6.08906 24.75 5.25 23.9109 5.25 22.875V10.125C5.25 9.08904 6.08906 8.24998 7.125 8.24998H12.375C12.9984 8.24998 13.5 7.74841 13.5 7.12498C13.5 6.50154 12.9984 5.99998 12.375 5.99998H7.125Z" fill="black"/>
</svg>
