<svg width="20" height="20" viewBox="0 0 20 20" fill="none" xmlns="http://www.w3.org/2000/svg">
<path fill-rule="evenodd" clip-rule="evenodd" d="M15.4116 3.16753C17.1574 4.18503 18.3857 6.25086 18.3316 8.66086C18.2641 11.6692 15.9232 14.3225 11.9324 16.6925C11.3407 17.0442 10.7174 17.5 9.99989 17.5C9.29573 17.5 8.64573 17.0359 8.06656 16.6917C4.07739 14.3225 1.73573 11.6684 1.66823 8.66086C1.61406 6.25086 2.84239 4.18586 4.58823 3.16753C6.22156 2.21669 8.27323 2.21086 9.99989 3.61503C11.7266 2.21086 13.7782 2.21586 15.4116 3.16753ZM14.5724 4.60836C13.4107 3.93169 11.9591 3.95586 10.7024 5.22753C10.6103 5.32 10.5008 5.39337 10.3802 5.44343C10.2597 5.4935 10.1304 5.51927 9.99989 5.51927C9.86936 5.51927 9.74011 5.4935 9.61956 5.44343C9.49901 5.39337 9.38952 5.32 9.29739 5.22753C8.04073 3.95586 6.58906 3.93169 5.42739 4.60836C4.22406 5.31003 3.29406 6.79836 3.33489 8.62503C3.38156 10.7175 5.03489 12.9534 8.91823 15.26C9.25823 15.4625 9.61323 15.7217 9.99989 15.8292C10.3866 15.7217 10.7416 15.4625 11.0816 15.26C14.9649 12.9534 16.6182 10.7184 16.6649 8.62419C16.7066 6.79919 15.7757 5.31003 14.5724 4.60836Z" fill="#0D3C61"/>
</svg>
