<svg width="21" height="20" viewBox="0 0 21 20" fill="none" xmlns="http://www.w3.org/2000/svg">
<path d="M10.2531 0C4.59122 0 0 4.59041 0 10.2531C0 14.7833 2.93783 18.6266 7.01175 19.9824C7.52414 20.0773 7.71231 19.76 7.71231 19.4891C7.71231 19.2447 7.70274 18.4369 7.6984 17.5802C4.84589 18.2004 4.24399 16.3704 4.24399 16.3704C3.77759 15.1853 3.10557 14.8703 3.10557 14.8703C2.17535 14.2339 3.1757 14.2469 3.1757 14.2469C4.20531 14.3193 4.74746 15.3035 4.74746 15.3035C5.66192 16.871 7.14604 16.4178 7.73113 16.1559C7.82312 15.4931 8.08889 15.0409 8.38208 14.7849C6.10476 14.5255 3.71069 13.6464 3.71069 9.71767C3.71069 8.59831 4.11123 7.6836 4.76716 6.96559C4.66069 6.7073 4.30977 5.6645 4.86647 4.25219C4.86647 4.25219 5.72746 3.97662 7.68682 5.3032C8.50463 5.07595 9.38178 4.96208 10.2531 4.95823C11.1245 4.96208 12.0023 5.07595 12.8217 5.3032C14.7787 3.97662 15.6385 4.25219 15.6385 4.25219C16.1966 5.6645 15.8455 6.7073 15.739 6.96559C16.3964 7.6836 16.7942 8.59823 16.7942 9.71767C16.7942 13.6557 14.3957 14.5229 12.1125 14.7767C12.4803 15.0948 12.808 15.7189 12.808 16.6754C12.808 18.0472 12.7961 19.1514 12.7961 19.4891C12.7961 19.762 12.9806 20.0817 13.5004 19.981C17.5721 18.6237 20.5062 14.7818 20.5062 10.2531C20.5062 4.59041 15.9156 0 10.2531 0Z" fill="#24292F"/>
<path d="M3.84002 14.6059C3.8175 14.6568 3.73725 14.6721 3.66431 14.6372C3.58993 14.6037 3.54811 14.5342 3.57224 14.4831C3.59435 14.4307 3.67461 14.416 3.74883 14.4512C3.82337 14.4846 3.86583 14.5547 3.84002 14.6059ZM4.34437 15.0559C4.29548 15.1012 4.19987 15.0802 4.13497 15.0085C4.06791 14.937 4.05536 14.8415 4.10498 14.7954C4.1554 14.7501 4.24812 14.7713 4.31534 14.8429C4.38241 14.9151 4.39543 15.0101 4.34429 15.0559M4.69039 15.6316C4.62751 15.6753 4.52474 15.6344 4.46129 15.5432C4.39849 15.4521 4.39849 15.3427 4.46266 15.2989C4.52635 15.2551 4.62751 15.2945 4.69184 15.3849C4.75456 15.4776 4.75456 15.587 4.69031 15.6317M5.27548 16.2985C5.21927 16.3604 5.09962 16.3439 5.01196 16.2593C4.92238 16.1766 4.89738 16.0593 4.95375 15.9973C5.0106 15.9352 5.13098 15.9526 5.21927 16.0365C5.30829 16.119 5.33547 16.2372 5.27556 16.2985M6.03169 16.5237C6.007 16.6039 5.89169 16.6404 5.77557 16.6063C5.65962 16.5712 5.58371 16.4771 5.60711 16.396C5.63123 16.3151 5.74703 16.2771 5.86403 16.3136C5.97982 16.3486 6.05589 16.442 6.03177 16.5237M6.89244 16.6191C6.89533 16.7037 6.79683 16.7738 6.67492 16.7754C6.55229 16.778 6.45314 16.7096 6.45185 16.6264C6.45185 16.541 6.54811 16.4715 6.67066 16.4695C6.79256 16.4671 6.89244 16.5351 6.89244 16.6191ZM7.73791 16.5867C7.75254 16.6692 7.66779 16.754 7.54676 16.7765C7.42775 16.7982 7.31758 16.7473 7.30239 16.6655C7.28759 16.5809 7.37396 16.4962 7.49273 16.4743C7.61399 16.4532 7.72247 16.5028 7.73791 16.5867Z" fill="#24292F"/>
</svg>
