<svg width="20" height="20" viewBox="0 0 20 20" fill="none" xmlns="http://www.w3.org/2000/svg">
<path fill-rule="evenodd" clip-rule="evenodd" d="M19.6 10.23C19.6 9.52093 19.5364 8.83912 19.4182 8.18457H10V12.0528H15.3818C15.15 13.3028 14.4455 14.3618 13.3864 15.0709V17.58H16.6182C18.5091 15.8391 19.6 13.2755 19.6 10.23Z" fill="#4285F4"/>
<path fill-rule="evenodd" clip-rule="evenodd" d="M9.99999 19.9973C12.7 19.9973 14.9636 19.1019 16.6182 17.5746L13.3864 15.0655C12.4909 15.6655 11.3454 16.0201 9.99999 16.0201C7.39545 16.0201 5.1909 14.261 4.40454 11.8973H1.06363V14.4882C2.70908 17.7564 6.0909 19.9973 9.99999 19.9973Z" fill="#34A853"/>
<path fill-rule="evenodd" clip-rule="evenodd" d="M4.40455 11.9006C4.20455 11.3006 4.09091 10.6596 4.09091 10.0006C4.09091 9.34146 4.20455 8.70055 4.40455 8.10055V5.50964H1.06364C0.386364 6.85964 0 8.38692 0 10.0006C0 11.6142 0.386364 13.1415 1.06364 14.4915L4.40455 11.9006Z" fill="#FBBC05"/>
<path fill-rule="evenodd" clip-rule="evenodd" d="M9.99999 3.97727C11.4682 3.97727 12.7864 4.48182 13.8227 5.47273L16.6909 2.60455C14.9591 0.990909 12.6954 0 9.99999 0C6.0909 0 2.70908 2.24091 1.06363 5.50909L4.40454 8.1C5.1909 5.73636 7.39545 3.97727 9.99999 3.97727Z" fill="#EA4335"/>
</svg>
